<svg xmlns="http://www.w3.org/2000/svg" width="420mm" height="297mm" viewBox="0 0 420 297">
<rect x="0" y="0" width="420" height="297" fill="#fff"/>
<rect x="10" y="10" width="400" height="277" fill="none" stroke="#222" stroke-width="0.7"/>
<g stroke="#111" stroke-width="0.35" fill="none" stroke-linecap="round" stroke-linejoin="round">
<polyline points="98.875,74.775 321.125,74.775"/>
<polyline points="98.875,74.775 97.287,75.200 96.125,76.363 95.700,77.950"/>
<polyline points="321.125,74.775 322.712,75.200 323.875,76.363 324.300,77.950"/>
<polyline points="95.700,116.050 95.700,77.950"/>
<polyline points="324.300,77.950 324.300,116.050"/>
<polyline points="98.875,119.225 97.287,118.800 96.125,117.637 95.700,116.050"/>
<polyline points="324.300,116.050 323.875,117.637 322.712,118.800 321.125,119.225"/>
<polyline points="321.125,119.225 98.875,119.225"/>
<polyline points="246.338,92.238 245.636,90.309 243.858,89.283 241.838,89.639 240.518,91.211 240.518,93.264 241.838,94.836 243.858,95.192 245.636,94.166 246.338,92.238"/>
<polyline points="108.797,97.000 108.115,94.901 106.329,93.603 104.121,93.603 102.335,94.901 101.653,97.000 102.335,99.099 104.121,100.397 106.329,100.397 108.115,99.099 108.797,97.000"/>
<polyline points="219.525,97.000 218.800,93.355 216.735,90.265 213.645,88.200 210.000,87.475 206.355,88.200 203.265,90.265 201.200,93.355 200.475,97.000 201.200,100.645 203.265,103.735 206.355,105.800 210.000,106.525 213.645,105.800 216.735,103.735 218.800,100.645 219.525,97.000"/>
<polyline points="283.025,97.000 282.298,94.049 280.282,91.774 277.440,90.696 274.423,91.063 271.922,92.789 270.510,95.480 270.510,98.520 271.922,101.211 274.423,102.937 277.440,103.304 280.282,102.226 282.298,99.951 283.025,97.000"/>
<polyline points="318.347,97.000 317.665,94.901 315.879,93.603 313.671,93.603 311.885,94.901 311.203,97.000 311.885,99.099 313.671,100.397 315.879,100.397 317.665,99.099 318.347,97.000"/>
<polyline points="98.875,196.206 321.125,196.206"/>
<polyline points="98.875,197.794 321.125,197.794"/>
<polyline points="98.875,196.206 98.520,196.206 98.168,196.206 97.826,196.206 97.497,196.206 97.186,196.206 96.895,196.206 96.630,196.206 96.393,196.206 96.187,196.206 96.014,196.206 95.878,196.206 95.780,196.206 95.720,196.206 95.700,196.206"/>
<polyline points="321.125,196.206 321.480,196.206 321.832,196.206 322.174,196.206 322.503,196.206 322.814,196.206 323.105,196.206 323.370,196.206 323.607,196.206 323.813,196.206 323.986,196.206 324.122,196.206 324.220,196.206 324.280,196.206 324.300,196.206"/>
<polyline points="95.700,196.206 95.700,197.794"/>
<polyline points="98.875,197.794 98.520,197.794 98.168,197.794 97.826,197.794 97.497,197.794 97.186,197.794 96.895,197.794 96.630,197.794 96.393,197.794 96.187,197.794 96.014,197.794 95.878,197.794 95.780,197.794 95.720,197.794 95.700,197.794"/>
<polyline points="324.300,196.206 324.300,197.794"/>
<polyline points="321.125,197.794 321.480,197.794 321.832,197.794 322.174,197.794 322.503,197.794 322.814,197.794 323.105,197.794 323.370,197.794 323.607,197.794 323.813,197.794 323.986,197.794 324.122,197.794 324.220,197.794 324.280,197.794 324.300,197.794"/>
<polyline points="98.875,196.206 98.875,197.794"/>
<polyline points="321.125,196.206 321.125,197.794"/>
</g>
<g stroke="#1553a8" stroke-width="0.25" fill="none">
<line x1="314.775" y1="97.000" x2="314.775" y2="63.000"/>
<line x1="210.000" y1="97.000" x2="210.000" y2="63.000"/>
<line x1="276.675" y1="97.000" x2="276.675" y2="51.000"/>
<line x1="243.338" y1="101.762" x2="243.338" y2="72.525"/>
<polyline points="210.000,97.000 210.000,143.000 276.675,143.000 276.675,97.000"/>
<polyline points="210.000,97.000 210.000,151.000 243.338,151.000 243.338,97.000"/>
<polyline points="210.000,97.000 210.000,159.000 314.775,159.000 314.775,97.000"/>
<polyline points="210.000,97.000 210.000,159.000 105.225,159.000 105.225,97.000"/>
<polyline points="210.000,97.000 258.000,97.000 258.000,101.762 210.000,101.762"/>
<polyline points="95.700,77.950 95.700,37.000 324.300,37.000 324.300,77.950"/>
<polyline points="98.875,119.225 76.000,119.225 76.000,74.775 98.875,74.775"/>
<polyline points="98.875,197.794 76.000,197.794 76.000,196.206 98.875,196.206"/>
</g>
<g font-family="DejaVu Sans, Helvetica, sans-serif" fill="#1553a8" font-size="3.4" text-anchor="middle">
<text x="314.775" y="62.000">2X ⌀7.14</text>
<text x="210.000" y="62.000">⌀19.05</text>
<text x="276.675" y="50.000">⌀12.70</text>
<text x="243.338" y="71.525">⌀6.00</text>
<text x="243.338" y="142.000">66.67</text>
<text x="226.669" y="150.000">33.34</text>
<text x="262.387" y="158.000">104.77</text>
<text x="157.613" y="158.000">104.77</text>
<text x="258.000" y="98.400">4.76</text>
<text x="210.000" y="36.000">228.60</text>
<text x="76.000" y="96.000">44.45</text>
<text x="76.000" y="196.000">1.59</text>
</g>
<g font-family="DejaVu Sans, Helvetica, sans-serif" fill="#111" font-size="3.6">
<text x="32.000" y="235.000">HES 9400 SERIES SURFACE MOUNTED ELECTRIC STRIKE - 1/16 IN MOUNTING SPACER</text>
<text x="32.000" y="240.000">MATERIAL: 1/16 IN (1.59) STAINLESS SHEET OR SHIM STOCK, 304</text>
<text x="32.000" y="245.000">  16 GA (1.51) IS AN ACCEPTABLE SUBSTITUTE - IT MOVES THE STRIKE 0.08 LESS</text>
<text x="32.000" y="250.000">HOLE PATTERN PER HES FRAME PREPARATION TEMPLATE, DOC 3026006.002 REV C</text>
<text x="32.000" y="255.000">BREAK ALL SHARP EDGES. DIMENSIONS IN MILLIMETRES.</text>
</g></svg>